<?xml version="1.0" encoding="UTF-8"?>
<svg width="27px" height="32px" viewBox="0 0 27 32" version="1.1" xmlns="http://www.w3.org/2000/svg" xmlns:xlink="http://www.w3.org/1999/xlink">
    <!-- Generator: sketchtool 59.1 (101010) - https://sketch.com -->
    <title>F7F7CE36-9559-4162-9571-8EE0919E3448</title>
    <desc>Created with sketchtool.</desc>
    <g id="Page-2" stroke="none" stroke-width="1" fill="none" fill-rule="evenodd">
        <g id="push-panier---Option-installation" transform="translate(-931.000000, -1081.000000)" fill="#7A7A7A" fill-rule="nonzero">
            <g id="Group-21" transform="translate(480.000000, 1081.000000)">
                <g id="Group-24" transform="translate(354.000000, 0.000000)">
                    <g id="discount-copy" transform="translate(97.000000, 0.000000)">
                        <path d="M19.7332199,29.5398833 C19.4216926,30.4625487 18.7660506,31.1714494 17.9581712,31.5714981 C17.182393,31.9557393 16.2658074,32.0552043 15.3779183,31.7862354 L2.3981031,27.4053988 C1.47543776,27.0938716 0.766536965,26.4382295 0.366245105,25.6303502 C-0.0333171051,24.8232004 -0.124999969,23.8638132 0.18604084,22.9430934 L5.31493192,7.75291829 C5.56712062,7.00607975 6.04936772,6.37743191 6.70646886,5.942607 L12.8742704,0.805204296 C13.2721304,0.456955268 13.9365273,0.195768467 14.4552529,0.109679004 C15.0243191,0.0148346148 15.6087062,0.0629863844 16.1539397,0.246595362 L20.790856,1.80228601 C21.4090467,2.0111868 21.931177,2.37427044 22.3285506,2.83390076 C22.7337062,3.30277236 23.0094845,3.87256809 23.1257296,4.48151751 L24.9165856,12.3078793 C25.0085117,12.6464007 25.0466926,12.9902724 25.0362354,13.3302529 C25.0252918,13.6838521 24.9625487,14.026751 24.853356,14.3489786 L24.0367218,16.7696984 C24.5683366,16.9491732 25.1376459,17.1091926 25.7502432,17.2456225 C26.0860895,17.3197957 26.2981517,17.6519941 26.2237354,17.9878405 C26.1498054,18.3236868 25.8173638,18.5359922 25.4815175,18.4618191 C24.8244164,18.3154183 24.2118191,18.1437257 23.6386186,17.9511187 L19.7332199,29.5398833 Z M9.48711091,21.8309825 C9.48711091,21.545963 9.33390076,21.3309825 9.06420233,21.239786 L5.82271402,20.1488327 C5.49635212,20.0396401 5.14323928,20.2157101 5.03380352,20.542072 C4.92461086,20.8681906 5.10068096,21.2215467 5.4270428,21.3307393 L8.6502918,22.4156128 C8.71716925,22.4401751 8.78939692,22.4535506 8.86454282,22.4535506 C9.20841438,22.4535506 9.48711091,22.1398346 9.48711091,21.8309825 Z M13.6991732,22.7998541 C13.3127432,22.6867704 12.9007782,23.0009728 12.9007782,23.3990759 C12.9007782,23.6775292 13.0410992,23.881323 13.3005837,23.9807879 C13.3144455,23.9854086 13.327821,23.9905155 13.3419261,23.994893 L16.5410992,25.0714981 C16.8674611,25.1806907 17.2208171,25.0048638 17.3300097,24.678502 C17.4392024,24.3521401 17.2631323,23.9987841 16.9367704,23.8895914 L13.6991732,22.7998541 Z M11.1794747,21.9995136 C10.8358463,21.9995136 10.5569066,22.2782101 10.5569066,22.6220817 C10.5569066,22.9659533 10.8358463,23.2446498 11.1794747,23.2446498 C11.5233463,23.2446498 11.8020428,22.9659533 11.8020428,22.6220817 C11.8020428,22.2782101 11.5233463,21.9995136 11.1794747,21.9995136 Z M15.5498541,7.8285506 C15.5566634,7.48467897 15.8409533,7.21133267 16.1848249,7.21814201 C16.5286965,7.22470817 16.8020428,7.50899804 16.7952335,7.85286967 C16.7952335,7.85992218 16.7692121,8.63253889 17.0464494,9.74343384 C17.0654183,9.73467897 17.0839008,9.72592411 17.1023833,9.71668289 C17.5824416,9.47908557 17.9715467,9.05860893 18.1561284,8.5121595 C18.3414397,7.96376461 18.2867218,7.39178017 18.0486381,6.91074901 C17.8107977,6.43069068 17.3905642,6.04158562 16.8441148,5.85700389 C16.2954767,5.67169258 15.7237354,5.72641052 15.2427043,5.96473737 C14.7626459,6.20233463 14.3735409,6.62256809 14.1889591,7.1692607 C14.0036479,7.71789883 14.0583658,8.28964009 14.2964494,8.77067119 C14.5342899,9.25072959 14.9545233,9.63983465 15.5009728,9.82441637 C15.603356,9.85894942 15.7064689,9.88497083 15.8095817,9.90321009 C15.5218871,8.68117703 15.5496109,7.83608953 15.5498541,7.8285506 L15.5498541,7.8285506 Z M17.4309339,10.9357977 C18.1461576,12.7317607 19.6626945,14.9124514 22.8730545,16.3205253 L23.6714494,13.9484436 C23.7429475,13.7373541 23.7840467,13.5177529 23.790856,13.295963 C23.797179,13.0802529 23.771644,12.8562743 23.7103599,12.6303502 L21.9097762,4.7599708 C21.834144,4.3428988 21.6639105,3.97130347 21.3859436,3.64980545 C21.1293774,3.35286967 20.7930447,3.11867704 20.3951848,2.98419262 L15.7585117,1.42850191 C15.4053988,1.30933715 15.0260214,1.27869647 14.6553988,1.34022375 C14.5634727,1.35554478 13.8642996,1.61794746 13.6502918,1.7789397 L7.41269454,6.96984436 C6.9844358,7.24756806 6.66001942,7.66512647 6.49683854,8.14858951 L1.36770428,23.3387646 C1.16658559,23.9345817 1.22616728,24.5559339 1.48467897,25.0783074 C1.74294749,25.5999514 2.19965952,26.02286 2.79353114,26.2234922 L15.6665856,30.5700389 C16.2624027,30.7711576 16.8837548,30.7118191 17.4063716,30.4530642 C17.9275292,30.1947957 18.3504377,29.73857 18.55107,29.1449416 L22.4725195,17.5082685 C18.6943094,15.8920233 16.9764105,13.2842899 16.1960117,11.182393 C14.92607,11.1911478 13.7480545,10.4734922 13.1780156,9.32247085 C12.3594358,7.6692607 13.0379377,5.66464006 14.6906615,4.8463035 C16.3438716,4.0277237 18.3484922,4.70622568 19.1668288,6.35894942 C19.545963,7.12451362 19.6327821,8.03453311 19.3380351,8.90783072 C19.0425584,9.78331711 18.4207198,10.4557393 17.6541828,10.8351167 C17.5812257,10.8713522 17.5068093,10.9049124 17.4309339,10.9357977 Z M7.70500974,14.5839008 L18.8193093,18.3246595 C19.1456712,18.4338521 19.4987841,18.2577821 19.6079767,17.9314203 C19.7171692,17.6050584 19.5413424,17.2519455 19.2147374,17.1427529 L8.10068096,13.4019941 C7.77431907,13.2928016 7.42120623,13.4686284 7.31201363,13.7949903 C7.20282098,14.1213522 7.37864784,14.4747082 7.70500974,14.5839008 L7.70500974,14.5839008 Z M6.56590468,17.9571984 L17.6802043,21.6979572 C18.0065662,21.807393 18.359679,21.631323 18.4688716,21.3049611 C18.5780642,20.9785992 18.4019941,20.6254864 18.0756323,20.5162938 L6.96157584,16.775535 C6.63521401,16.6660992 6.28210117,16.8421693 6.17290858,17.1685311 C6.06371598,17.494893 6.23954279,17.8480059 6.56590468,17.9571984 L6.56590468,17.9571984 Z" id="Shape"></path>
                    </g>
                </g>
            </g>
        </g>
    </g>
</svg>