<?xml version="1.0" encoding="UTF-8"?>
<svg width="30px" height="32px" viewBox="0 0 30 32" version="1.1" xmlns="http://www.w3.org/2000/svg" xmlns:xlink="http://www.w3.org/1999/xlink">
    <!-- Generator: sketchtool 59.1 (101010) - https://sketch.com -->
    <title>1985CD5F-1244-43CF-9AC9-4C878F12344C</title>
    <desc>Created with sketchtool.</desc>
    <g id="Page-2" stroke="none" stroke-width="1" fill="none" fill-rule="evenodd">
        <g id="push-panier---Option-installation" transform="translate(-579.000000, -1081.000000)" fill="#7A7A7A" fill-rule="nonzero">
            <g id="Group-21" transform="translate(480.000000, 1081.000000)">
                <g id="Group-23">
                    <g id="idea" transform="translate(99.185185, 0.000000)">
                        <path d="M14.8148148,4.74074074 C9.25985185,4.74074074 4.74074074,9.25985185 4.74074074,14.8148148 C4.74074074,19.0293333 7.34281481,22.7626667 11.2592593,24.237037 L11.2592593,29.6296296 C11.2592593,29.9573333 11.5241481,30.2222222 11.8518519,30.2222222 L12.4444444,30.2222222 L12.4444444,31.4074074 C12.4444444,31.7351111 12.7093333,32 13.037037,32 L16.5925926,32 C16.9202963,32 17.1851852,31.7351111 17.1851852,31.4074074 L17.1851852,30.2222222 L17.7777778,30.2222222 C18.1054815,30.2222222 18.3703704,29.9573333 18.3703704,29.6296296 L18.3703704,24.237037 C22.2868148,22.7626667 24.8888889,19.0293333 24.8888889,14.8148148 C24.8888889,9.25985185 20.3697778,4.74074074 14.8148148,4.74074074 Z M16.5925926,29.037037 C16.2648889,29.037037 16,29.3019259 16,29.6296296 L16,30.8148148 L13.6296296,30.8148148 L13.6296296,29.6296296 C13.6296296,29.3019259 13.3647407,29.037037 13.037037,29.037037 L12.4444444,29.037037 L12.4444444,26.0740741 L17.1851852,26.0740741 L17.1851852,29.037037 L16.5925926,29.037037 Z M17.5928889,23.2545185 C17.3493333,23.3345185 17.1851852,23.5620741 17.1851852,23.8174815 L17.1851852,24.8888889 L12.4444444,24.8888889 L12.4444444,23.8174815 C12.4444444,23.5614815 12.2802963,23.3345185 12.0367407,23.2545185 C8.38222222,22.0527407 5.92592593,18.6607407 5.92592593,14.8148148 C5.92592593,9.91348148 9.91348148,5.92592593 14.8148148,5.92592593 C19.7161481,5.92592593 23.7037037,9.91348148 23.7037037,14.8148148 C23.7037037,18.6607407 21.2474074,22.0527407 17.5928889,23.2545185 Z" id="Shape"></path>
                        <path d="M14.8148148,3.55555556 C15.1425185,3.55555556 15.4074074,3.29066667 15.4074074,2.96296296 L15.4074074,0.592592593 C15.4074074,0.264888889 15.1425185,0 14.8148148,0 C14.4871111,0 14.2222222,0.264888889 14.2222222,0.592592593 L14.2222222,2.96296296 C14.2222222,3.29066667 14.4871111,3.55555556 14.8148148,3.55555556 Z" id="Shape"></path>
                        <path d="M29.037037,14.2222222 L26.6666667,14.2222222 C26.338963,14.2222222 26.0740741,14.4871111 26.0740741,14.8148148 C26.0740741,15.1425185 26.338963,15.4074074 26.6666667,15.4074074 L29.037037,15.4074074 C29.3647407,15.4074074 29.6296296,15.1425185 29.6296296,14.8148148 C29.6296296,14.4871111 29.3647407,14.2222222 29.037037,14.2222222 Z" id="Shape"></path>
                        <path d="M2.96296296,14.2222222 L0.592592593,14.2222222 C0.264888889,14.2222222 0,14.4871111 0,14.8148148 C0,15.1425185 0.264888889,15.4074074 0.592592593,15.4074074 L2.96296296,15.4074074 C3.29066667,15.4074074 3.55555556,15.1425185 3.55555556,14.8148148 C3.55555556,14.4871111 3.29066667,14.2222222 2.96296296,14.2222222 Z" id="Shape"></path>
                        <path d="M24.4527407,4.33896296 L22.7768889,6.01481481 C22.5451852,6.24651852 22.5451852,6.62103704 22.7768889,6.85274074 C22.8924444,6.9682963 23.0441481,7.02637037 23.1958519,7.02637037 C23.3475556,7.02637037 23.4992593,6.9682963 23.6148148,6.85274074 L25.2906667,5.17688889 C25.5223704,4.94518519 25.5223704,4.57066667 25.2906667,4.33896296 C25.058963,4.10725926 24.6838519,4.10785185 24.4527407,4.33896296 Z" id="Shape"></path>
                        <path d="M6.01481481,22.7768889 L4.33896296,24.4527407 C4.10725926,24.6844444 4.10725926,25.058963 4.33896296,25.2906667 C4.45451852,25.4062222 4.60622222,25.4642963 4.75792593,25.4642963 C4.90962963,25.4642963 5.06133333,25.4062222 5.17688889,25.2906667 L6.85274074,23.6148148 C7.08444444,23.3831111 7.08444444,23.0085926 6.85274074,22.7768889 C6.62103704,22.5451852 6.24651852,22.5451852 6.01481481,22.7768889 Z" id="Shape"></path>
                        <path d="M23.6148148,22.7768889 C23.3831111,22.5451852 23.0085926,22.5451852 22.7768889,22.7768889 C22.5451852,23.0085926 22.5451852,23.3831111 22.7768889,23.6148148 L24.4527407,25.2906667 C24.5682963,25.4062222 24.72,25.4642963 24.8717037,25.4642963 C25.0234074,25.4642963 25.1751111,25.4062222 25.2906667,25.2906667 C25.5223704,25.058963 25.5223704,24.6844444 25.2906667,24.4527407 L23.6148148,22.7768889 Z" id="Shape"></path>
                        <path d="M6.01481481,6.85274074 C6.13037037,6.9682963 6.28207407,7.02637037 6.43377778,7.02637037 C6.58548148,7.02637037 6.73718519,6.9682963 6.85274074,6.85274074 C7.08444444,6.62103704 7.08444444,6.24651852 6.85274074,6.01481481 L5.17688889,4.33896296 C4.94518519,4.10725926 4.57066667,4.10725926 4.33896296,4.33896296 C4.10725926,4.57066667 4.10725926,4.94518519 4.33896296,5.17688889 L6.01481481,6.85274074 Z" id="Shape"></path>
                        <path d="M14.8148148,7.7037037 C10.8936296,7.7037037 7.7037037,10.8936296 7.7037037,14.8148148 C7.7037037,15.1425185 7.96859259,15.4074074 8.2962963,15.4074074 C8.624,15.4074074 8.88888889,15.1425185 8.88888889,14.8148148 C8.88888889,11.5472593 11.5472593,8.88888889 14.8148148,8.88888889 C15.1425185,8.88888889 15.4074074,8.624 15.4074074,8.2962963 C15.4074074,7.96859259 15.1425185,7.7037037 14.8148148,7.7037037 Z" id="Shape"></path>
                    </g>
                </g>
            </g>
        </g>
    </g>
</svg>