<?xml version="1.0" encoding="UTF-8"?>
<svg width="32px" height="32px" viewBox="0 0 32 32" version="1.1" xmlns="http://www.w3.org/2000/svg" xmlns:xlink="http://www.w3.org/1999/xlink">
    <!-- Generator: sketchtool 59.1 (101010) - https://sketch.com -->
    <title>E8C520F5-60AE-44E7-A29B-4A5900B19D71</title>
    <desc>Created with sketchtool.</desc>
    <g id="Page-2" stroke="none" stroke-width="1" fill="none" fill-rule="evenodd">
        <g id="push-panier---Option-installation" transform="translate(-1282.000000, -1081.000000)" fill="#7A7A7A" fill-rule="nonzero">
            <g id="Group-21" transform="translate(480.000000, 1081.000000)">
                <g id="Group-25" transform="translate(700.000000, 0.000000)">
                    <g id="puzzle" transform="translate(102.000000, 0.000000)">
                        <path d="M27.4574375,15.104625 C26.44975,15.104625 25.4855,15.442375 24.7055625,16.036 L24.7055625,7.931875 C24.7055625,7.5798125 24.4201875,7.2944375 24.068125,7.2944375 L15.9639375,7.2944375 C16.5576875,6.5145625 16.8953125,5.5503125 16.8953125,4.5425625 C16.8953125,2.0378125 14.8575,0 12.3528125,0 C9.848125,0 7.81025,2.0378125 7.81025,4.542625 C7.81025,5.5503125 8.148,6.5145625 8.741625,7.2945 L0.6375,7.2945 C0.2854375,7.2945 6.25e-05,7.579875 6.25e-05,7.9319375 L6.25e-05,17.7085 C6.25e-05,17.997375 0.1943125,18.250125 0.4735,18.3244375 C0.752375,18.39875 1.046875,18.276125 1.1905625,18.0255 C1.772625,17.01025 2.8594375,16.3795625 4.026875,16.3795625 C5.828625,16.3795625 7.2945,17.8454375 7.2945,19.6471875 C7.2945,21.4489375 5.8286875,22.9148125 4.026875,22.9148125 C2.859375,22.9148125 1.7725625,22.284125 1.1905625,21.268875 C1.046875,21.0183125 0.7525,20.8955625 0.4735,20.97 C0.1943125,21.0443125 6.25e-05,21.2970625 6.25e-05,21.586 L6.25e-05,31.362625 C6.25e-05,31.714625 0.2854375,32 0.6375,32 L10.4140625,32 C10.7029375,32 10.9556875,31.8056875 11.03,31.5265625 C11.104375,31.2474375 10.9816875,30.9531875 10.731125,30.8095 C9.715875,30.2274375 9.0851875,29.140625 9.0851875,27.9731875 C9.0851875,26.1714375 10.5510625,24.7055625 12.3528125,24.7055625 C14.1545625,24.7055625 15.6204375,26.171375 15.6204375,27.9731875 C15.6204375,29.1406875 14.98975,30.2275625 13.9745,30.8095 C13.723875,30.9531875 13.601125,31.2474375 13.6755625,31.5265625 C13.749875,31.80575 14.002625,32 14.2915,32 L24.068125,32 C24.4201875,32 24.7055625,31.714625 24.7055625,31.3625625 L24.7055625,23.2583125 C25.4854375,23.8520625 26.4496875,24.1896875 27.4574375,24.1896875 C29.9621875,24.1896875 32,22.151875 32,19.6471875 C32,17.1424375 29.9621875,15.104625 27.4574375,15.104625 Z M27.4575625,22.9148125 C26.2900625,22.9148125 25.20325,22.284125 24.62125,21.268875 C24.4775625,21.0183125 24.183125,20.8955625 23.9041875,20.97 C23.625,21.0443125 23.43075,21.2970625 23.43075,21.586 L23.43075,30.7251875 L15.964,30.7251875 C16.557625,29.94525 16.8953125,28.981 16.8953125,27.9733125 C16.8953125,25.4685625 14.8575,23.43075 12.35275,23.43075 C9.848,23.43075 7.8101875,25.4685625 7.8101875,27.9733125 C7.8101875,28.981 8.1479375,29.94525 8.7415625,30.7251875 L1.2749375,30.7251875 L1.2749375,23.258375 C2.0548125,23.852125 3.0190625,24.18975 4.0268125,24.18975 C6.5315625,24.18975 8.569375,22.1519375 8.569375,19.6471875 C8.569375,17.1424375 6.5315625,15.104625 4.0268125,15.104625 C3.019125,15.104625 2.054875,15.442375 1.2749375,16.036 L1.2749375,8.569375 L10.4140625,8.569375 C10.7029375,8.569375 10.9556875,8.3750625 11.03,8.0959375 C11.104375,7.8168125 10.9816875,7.5225625 10.731125,7.378875 C9.715875,6.796875 9.0851875,5.7100625 9.0851875,4.5425625 C9.0851875,2.7408125 10.551,1.2749375 12.3528125,1.2749375 C14.154625,1.2749375 15.6204375,2.7408125 15.6204375,4.5425625 C15.6204375,5.710125 14.98975,6.7969375 13.9745,7.378875 C13.723875,7.5225625 13.601125,7.8168125 13.6755625,8.0959375 C13.749875,8.375125 14.002625,8.569375 14.2915,8.569375 L23.43075,8.569375 L23.43075,17.7085 C23.43075,17.997375 23.6250625,18.250125 23.9041875,18.3244375 C24.1831875,18.39875 24.4775625,18.276125 24.62125,18.0255 C25.20325,17.01025 26.2900625,16.3795625 27.4575625,16.3795625 C29.2593125,16.3795625 30.7251875,17.8454375 30.7251875,19.6471875 C30.7251875,21.4489375 29.259375,22.9148125 27.4575625,22.9148125 Z" id="Shape"></path>
                        <path d="M21.9283125,9.56175 L21.354625,9.56175 C21.0025625,9.56175 20.7171875,9.847125 20.7171875,10.1991875 C20.7171875,10.55125 21.0025625,10.836625 21.354625,10.836625 L21.9283125,10.836625 C22.280375,10.836625 22.56575,10.55125 22.56575,10.1991875 C22.56575,9.847125 22.280375,9.56175 21.9283125,9.56175 Z" id="Shape"></path>
                        <path d="M19.0598125,9.56175 L14.852625,9.56175 C14.5005625,9.56175 14.2151875,9.847125 14.2151875,10.1991875 C14.2151875,10.55125 14.5005625,10.836625 14.852625,10.836625 L19.0598125,10.836625 C19.411875,10.836625 19.69725,10.55125 19.69725,10.1991875 C19.69725,9.847125 19.411875,9.56175 19.0598125,9.56175 Z" id="Shape"></path>
                    </g>
                </g>
            </g>
        </g>
    </g>
</svg>